<?xml version="1.0" encoding="UTF-8" standalone="no"?>
<!-- Created with Inkscape (http://www.inkscape.org/) -->

<svg
   width="273mm"
   height="273.00003mm"
   viewBox="0 0 273 273.00003"
   version="1.1"
   id="svg5"
   inkscape:version="1.3.2 (091e20e, 2023-11-25, custom)"
   sodipodi:docname="MPVOneFrontPanel_v3.svg"
   xml:space="preserve"
   xmlns:inkscape="http://www.inkscape.org/namespaces/inkscape"
   xmlns:sodipodi="http://sodipodi.sourceforge.net/DTD/sodipodi-0.dtd"
   xmlns="http://www.w3.org/2000/svg"
   xmlns:svg="http://www.w3.org/2000/svg"><sodipodi:namedview
     id="namedview7"
     pagecolor="#f3f3f3"
     bordercolor="#666666"
     borderopacity="1.0"
     inkscape:showpageshadow="2"
     inkscape:pageopacity="0"
     inkscape:pagecheckerboard="0"
     inkscape:deskcolor="#d1d1d1"
     inkscape:document-units="mm"
     showgrid="false"
     inkscape:zoom="0.3581229"
     inkscape:cx="632.46444"
     inkscape:cy="381.15407"
     inkscape:window-width="1920"
     inkscape:window-height="991"
     inkscape:window-x="-9"
     inkscape:window-y="-9"
     inkscape:window-maximized="1"
     inkscape:current-layer="layer1" /><defs
     id="defs2" /><g
     inkscape:label="Template"
     inkscape:groupmode="layer"
     id="layer1"
     transform="translate(-53.402158,-12.000001)"><rect
       style="font-size:10.5833px;line-height:1.25;display:inline;fill:#d38d5f;fill-rule:evenodd;stroke-width:0.0700043"
       id="rect1-3-0"
       width="273"
       height="273"
       x="-326.40216"
       y="12"
       rx="0"
       ry="0"
       transform="scale(-1,1)"
       inkscape:label="MainTop1"
       inkscape:export-filename="MPCOne_v3.svg"
       inkscape:export-xdpi="96"
       inkscape:export-ydpi="96" /><g
       id="g6"
       inkscape:label="CutOuts"
       style="fill:#00ffff"><g
         id="g7-5-9"
         inkscape:label="QLinkKnobs"
         transform="translate(21.375553,-1.2908292)"
         style="fill:#00ffff" /><g
         id="g24-5-3"
         inkscape:label="PADS"
         transform="translate(21.375553,-1.2908292)"
         style="fill:#00ffff" /><g
         id="g51-6-6"
         inkscape:label="SmallButtons"
         style="opacity:0.6;fill:#00ffff"
         transform="translate(21.375553,-1.2908292)" /><g
         id="g39-7-5"
         inkscape:label="plusminus"
         style="opacity:0.6;fill:#00ffff"
         transform="translate(22.375553,-1.2908292)" /><g
         id="g40-7-0"
         inkscape:label="LeftButtons"
         transform="translate(21.375553,-1.2908292)"
         style="fill:#00ffff" /><g
         id="g34-4-8"
         inkscape:label="MainButtons"
         transform="translate(21.375553,-1.2908292)"
         style="fill:#00ffff" /><g
         id="g38-3-5"
         inkscape:label="BankButtons"
         transform="translate(21.375553,-1.2908292)"
         style="fill:#00ffff" /><path
         id="text4-7"
         style="font-size:10.5833px;line-height:1.25;fill:#00ffff;stroke-width:0.264583"
         d="m 161.53036,20.50026 -2.80086,7.694597 h -1.36425 l -2.80085,-7.694597 h 1.09553 l 2.41329,6.769591 2.41328,-6.769591 z m 5.49835,3.989408 q 0.24805,0.222208 0.40824,0.558104 0.1602,0.335896 0.1602,0.868161 0,0.527098 -0.1912,0.966346 -0.1912,0.439249 -0.53743,0.764809 -0.38758,0.361734 -0.91467,0.537433 -0.52193,0.170532 -1.14722,0.170532 -0.64078,0 -1.2609,-0.155029 -0.62011,-0.149861 -1.01802,-0.330728 v -1.080034 h 0.0775 q 0.43925,0.289387 1.03353,0.480589 0.59428,0.191203 1.14721,0.191203 0.32556,0 0.69246,-0.108521 0.36691,-0.10852 0.59428,-0.320392 0.23771,-0.227376 0.3514,-0.50126 0.11886,-0.273884 0.11886,-0.692462 0,-0.41341 -0.13436,-0.682127 -0.12919,-0.273884 -0.36174,-0.428913 -0.23254,-0.160196 -0.56327,-0.21704 -0.33073,-0.06201 -0.71313,-0.06201 h -0.46509 v -0.857826 h 0.36174 q 0.78548,0 1.25056,-0.32556 0.47026,-0.330728 0.47026,-0.961179 0,-0.279052 -0.11886,-0.485757 -0.11885,-0.211872 -0.33073,-0.346231 -0.2222,-0.134358 -0.47542,-0.186034 -0.25321,-0.05168 -0.57361,-0.05168 -0.49092,0 -1.04386,0.1757 -0.55293,0.175699 -1.04386,0.496092 h -0.0517 v -1.080034 q 0.3669,-0.180867 0.97668,-0.330728 0.61495,-0.155029 1.18855,-0.155029 0.56327,0 0.99219,0.103352 0.42891,0.103353 0.77514,0.330729 0.37207,0.248046 0.56327,0.599444 0.1912,0.351399 0.1912,0.821653 0,0.640786 -0.45475,1.121375 -0.44958,0.475422 -1.06453,0.599445 v 0.07235 q 0.24805,0.04134 0.56844,0.1757 0.32039,0.12919 0.5426,0.32556 z m 122.19178,35.002153 h 18.94831 c 0.88025,0 1.5889,0.505154 1.5889,1.132631 v 1.059365 c 0,0.627478 -0.70865,1.132631 -1.5889,1.132631 h -18.94831 c -0.88025,0 -1.5889,-0.505153 -1.5889,-1.132631 v -1.059365 c 0,-0.627477 0.70865,-1.132631 1.5889,-1.132631 z m 0.96674,191.982439 a 1.6325443,1.6325443 0 0 1 -1.60987,1.63239 1.6325443,1.6325443 0 0 1 -1.65459,-1.58705 1.6325443,1.6325443 0 0 1 1.56391,-1.67647 1.6325443,1.6325443 0 0 1 1.69803,1.54047 m -45.02584,0.0907 a 1.6325443,1.6325443 0 0 1 -1.60987,1.63239 1.6325443,1.6325443 0 0 1 -1.65459,-1.58705 1.6325443,1.6325443 0 0 1 1.5639,-1.67647 1.6325443,1.6325443 0 0 1 1.69804,1.54047 m -22.50008,0.19475 a 1.6325443,1.6325443 0 0 1 -1.60987,1.63239 1.6325443,1.6325443 0 0 1 -1.65459,-1.58704 1.6325443,1.6325443 0 0 1 1.56391,-1.67647 1.6325443,1.6325443 0 0 1 1.69803,1.54047 m 58.42529,-119.45735 h 13.47458 c 0.25581,0 0.46175,0.20595 0.46175,0.46176 v 6.43788 c 0,0.25582 -0.20594,0.46176 -0.46175,0.46176 h -13.47458 c -0.25582,0 -0.46176,-0.20594 -0.46176,-0.46176 v -6.43788 c 0,-0.25581 0.20594,-0.46176 0.46176,-0.46176 z m 22.4414,0 h 13.47459 c 0.25581,0 0.46175,0.20595 0.46175,0.46176 v 6.43788 c 0,0.25582 -0.20594,0.46176 -0.46175,0.46176 h -13.47459 c -0.25581,0 -0.46175,-0.20594 -0.46175,-0.46176 v -6.43788 c 0,-0.25581 0.20594,-0.46176 0.46175,-0.46176 z m 0,-20.37417 h 13.47459 c 0.25581,0 0.46175,0.20594 0.46175,0.46175 v 6.43789 c 0,0.25581 -0.20594,0.46175 -0.46175,0.46175 h -13.47459 c -0.25581,0 -0.46175,-0.20594 -0.46175,-0.46175 v -6.43789 c 0,-0.25581 0.20594,-0.46175 0.46175,-0.46175 z m -22.4414,0 h 13.47458 c 0.25581,0 0.46175,0.20594 0.46175,0.46175 v 6.43789 c 0,0.25581 -0.20594,0.46175 -0.46175,0.46175 h -13.47458 c -0.25582,0 -0.46176,-0.20594 -0.46176,-0.46175 v -6.43789 c 0,-0.25581 0.20594,-0.46175 0.46176,-0.46175 z m 22.90314,147.56248 h 13.70408 c 0.47288,0 0.85358,0.3807 0.85358,0.85358 v 11.092 c 0,0.47289 -0.3807,0.85358 -0.85358,0.85358 h -13.70408 c -0.47288,0 -0.85358,-0.38069 -0.85358,-0.85358 v -11.092 c 0,-0.47288 0.3807,-0.85358 0.85358,-0.85358 z m -22.20261,0 h 13.70408 c 0.47288,0 0.85358,0.3807 0.85358,0.85358 v 11.092 c 0,0.47289 -0.3807,0.85358 -0.85358,0.85358 h -13.70408 c -0.47288,0 -0.85357,-0.38069 -0.85357,-0.85358 v -11.092 c 0,-0.47288 0.38069,-0.85358 0.85357,-0.85358 z m -22.20262,0 h 13.70408 c 0.47288,0 0.85358,0.3807 0.85358,0.85358 v 11.092 c 0,0.47289 -0.3807,0.85358 -0.85358,0.85358 h -13.70408 c -0.47288,0 -0.85358,-0.38069 -0.85358,-0.85358 v -11.092 c 0,-0.47288 0.3807,-0.85358 0.85358,-0.85358 z m -22.70262,0 h 13.70408 c 0.47288,0 0.85358,0.3807 0.85358,0.85358 v 11.092 c 0,0.47289 -0.3807,0.85358 -0.85358,0.85358 h -13.70408 c -0.47288,0 -0.85358,-0.38069 -0.85358,-0.85358 v -11.092 c 0,-0.47288 0.3807,-0.85358 0.85358,-0.85358 z m -22.20262,0 h 13.70408 c 0.47288,0 0.85358,0.3807 0.85358,0.85358 v 11.092 c 0,0.47289 -0.3807,0.85358 -0.85358,0.85358 h -13.70408 c -0.47288,0 -0.85358,-0.38069 -0.85358,-0.85358 v -11.092 c 0,-0.47288 0.3807,-0.85358 0.85358,-0.85358 z m 89.31047,-28.68797 h 13.70408 c 0.47288,0 0.85358,0.38069 0.85358,0.85357 v 11.09201 c 0,0.47288 -0.3807,0.85358 -0.85358,0.85358 h -13.70408 c -0.47288,0 -0.85358,-0.3807 -0.85358,-0.85358 v -11.09201 c 0,-0.47288 0.3807,-0.85357 0.85358,-0.85357 z m -22.20261,0 h 13.70408 c 0.47288,0 0.85358,0.38069 0.85358,0.85357 v 11.09201 c 0,0.47288 -0.3807,0.85358 -0.85358,0.85358 h -13.70408 c -0.47288,0 -0.85357,-0.3807 -0.85357,-0.85358 v -11.09201 c 0,-0.47288 0.38069,-0.85357 0.85357,-0.85357 z m -22.20262,0 h 13.70408 c 0.47288,0 0.85358,0.38069 0.85358,0.85357 v 11.09201 c 0,0.47288 -0.3807,0.85358 -0.85358,0.85358 h -13.70408 c -0.47288,0 -0.85358,-0.3807 -0.85358,-0.85358 v -11.09201 c 0,-0.47288 0.3807,-0.85357 0.85358,-0.85357 z m -22.70262,0 h 13.70408 c 0.47288,0 0.85358,0.38069 0.85358,0.85357 v 11.09201 c 0,0.47288 -0.3807,0.85358 -0.85358,0.85358 h -13.70408 c -0.47288,0 -0.85358,-0.3807 -0.85358,-0.85358 v -11.09201 c 0,-0.47288 0.3807,-0.85357 0.85358,-0.85357 z m -22.20262,0 h 13.70408 c 0.47288,0 0.85358,0.38069 0.85358,0.85357 v 11.09201 c 0,0.47288 -0.3807,0.85358 -0.85358,0.85358 h -13.70408 c -0.47288,0 -0.85358,-0.3807 -0.85358,-0.85358 v -11.09201 c 0,-0.47288 0.3807,-0.85357 0.85358,-0.85357 z m -150.864519,-30.56471 h 11.698289 c 0.862208,0 1.556332,0.69412 1.556332,1.55633 v 4.86118 c 0,0.8622 -0.694124,1.55633 -1.556332,1.55633 h -11.698289 c -0.862208,0 -1.556333,-0.69413 -1.556333,-1.55633 v -4.86118 c 0,-0.86221 0.694125,-1.55633 1.556333,-1.55633 z m 0,-22.92095 h 11.698289 c 0.862208,0 1.556332,0.69413 1.556332,1.55633 v 4.86118 c 0,0.86221 -0.694124,1.55633 -1.556332,1.55633 h -11.698289 c -0.862208,0 -1.556333,-0.69412 -1.556333,-1.55633 v -4.86118 c 0,-0.8622 0.694125,-1.55633 1.556333,-1.55633 z m 0,-22.44124 h 11.698289 c 0.862208,0 1.556332,0.69413 1.556332,1.55634 v 4.86117 c 0,0.86221 -0.694124,1.55634 -1.556332,1.55634 h -11.698289 c -0.862208,0 -1.556333,-0.69413 -1.556333,-1.55634 v -4.86117 c 0,-0.86221 0.694125,-1.55634 1.556333,-1.55634 z m -0.887456,105.61487 h 13.70408 c 0.472882,0 0.853577,0.3807 0.853577,0.85358 v 11.092 c 0,0.47289 -0.380695,0.85358 -0.853577,0.85358 h -13.70408 c -0.472882,0 -0.853577,-0.38069 -0.853577,-0.85358 v -11.092 c 0,-0.47288 0.380695,-0.85358 0.853577,-0.85358 z m 0,-28.68797 h 13.70408 c 0.472882,0 0.853577,0.38069 0.853577,0.85357 v 11.09201 c 0,0.47288 -0.380695,0.85358 -0.853577,0.85358 h -13.70408 c -0.472882,0 -0.853577,-0.3807 -0.853577,-0.85358 v -11.09201 c 0,-0.47288 0.380695,-0.85357 0.853577,-0.85357 z m 208.675815,-18.4525 h 10.71268 c 0.25581,0 0.46175,0.20594 0.46175,0.46175 v 6.27985 c 0,0.25581 -0.20594,0.46176 -0.46175,0.46176 h -10.71268 c -0.25582,0 -0.46176,-0.20595 -0.46176,-0.46176 v -6.27985 c 0,-0.25581 0.20594,-0.46175 0.46176,-0.46175 z m -22.49892,0 h 10.71268 c 0.25581,0 0.46176,0.20594 0.46176,0.46175 v 6.27985 c 0,0.25581 -0.20595,0.46176 -0.46176,0.46176 h -10.71268 c -0.25581,0 -0.46176,-0.20595 -0.46176,-0.46176 v -6.27985 c 0,-0.25581 0.20595,-0.46175 0.46176,-0.46175 z m 54.53242,-13.22698 h 14.23573 c 0.25581,0 0.46175,0.20595 0.46175,0.46176 v 6.27985 c 0,0.25581 -0.20594,0.46175 -0.46175,0.46175 h -14.23573 c -0.25581,0 -0.46175,-0.20594 -0.46175,-0.46175 v -6.27985 c 0,-0.25581 0.20594,-0.46176 0.46175,-0.46176 z m -0.28665,-22.70265 h 14.23573 c 0.25581,0 0.46175,0.20595 0.46175,0.46176 v 6.27984 c 0,0.25582 -0.20594,0.46176 -0.46175,0.46176 h -14.23573 c -0.25581,0 -0.46175,-0.20594 -0.46175,-0.46176 v -6.27984 c 0,-0.25581 0.20594,-0.46176 0.46175,-0.46176 z m 0,-22.70265 h 14.23573 c 0.25581,0 0.46175,0.20594 0.46175,0.46176 v 6.27984 c 0,0.25582 -0.20594,0.46176 -0.46175,0.46176 h -14.23573 c -0.25581,0 -0.46175,-0.20594 -0.46175,-0.46176 v -6.27984 c 0,-0.25582 0.20594,-0.46176 0.46175,-0.46176 z m -22.70263,0 h 14.23572 c 0.25581,0 0.46175,0.20594 0.46175,0.46176 v 6.27984 c 0,0.25582 -0.20594,0.46176 -0.46175,0.46176 h -14.23572 c -0.25582,0 -0.46176,-0.20594 -0.46176,-0.46176 v -6.27984 c 0,-0.25582 0.20594,-0.46176 0.46176,-0.46176 z m -22.20264,0 h 14.23572 c 0.25581,0 0.46176,0.20594 0.46176,0.46176 v 6.27984 c 0,0.25582 -0.20595,0.46176 -0.46176,0.46176 h -14.23572 c -0.25581,0 -0.46176,-0.20594 -0.46176,-0.46176 v -6.27984 c 0,-0.25582 0.20595,-0.46176 0.46176,-0.46176 z m -22.20262,0 h 14.23572 c 0.25581,0 0.46176,0.20594 0.46176,0.46176 v 6.27984 c 0,0.25582 -0.20595,0.46176 -0.46176,0.46176 h -14.23572 c -0.25582,0 -0.46176,-0.20594 -0.46176,-0.46176 v -6.27984 c 0,-0.25582 0.20594,-0.46176 0.46176,-0.46176 z m -22.70262,0 h 14.23572 c 0.25581,0 0.46176,0.20594 0.46176,0.46176 v 6.27984 c 0,0.25582 -0.20595,0.46176 -0.46176,0.46176 h -14.23572 c -0.25582,0 -0.46176,-0.20594 -0.46176,-0.46176 v -6.27984 c 0,-0.25582 0.20594,-0.46176 0.46176,-0.46176 z m 0,22.70265 h 14.23572 c 0.25581,0 0.46176,0.20595 0.46176,0.46176 v 6.27984 c 0,0.25582 -0.20595,0.46176 -0.46176,0.46176 h -14.23572 c -0.25582,0 -0.46176,-0.20594 -0.46176,-0.46176 v -6.27984 c 0,-0.25581 0.20594,-0.46176 0.46176,-0.46176 z m 0,22.70265 h 14.23572 c 0.25581,0 0.46176,0.20595 0.46176,0.46176 v 6.27985 c 0,0.25581 -0.20595,0.46175 -0.46176,0.46175 h -14.23572 c -0.25582,0 -0.46176,-0.20594 -0.46176,-0.46175 v -6.27985 c 0,-0.25581 0.20594,-0.46176 0.46176,-0.46176 z m -34.14834,44.77929 h 23.97652 c 0.5605,0 1.01174,0.45123 1.01174,1.01174 v 23.97652 c 0,0.5605 -0.45124,1.01174 -1.01174,1.01174 h -23.97652 c -0.5605,0 -1.01174,-0.45124 -1.01174,-1.01174 v -23.97652 c 0,-0.56051 0.45124,-1.01174 1.01174,-1.01174 z m -29.92164,0 h 23.97652 c 0.56051,0 1.01174,0.45123 1.01174,1.01174 v 23.97652 c 0,0.5605 -0.45123,1.01174 -1.01174,1.01174 h -23.97652 c -0.5605,0 -1.01174,-0.45124 -1.01174,-1.01174 v -23.97652 c 0,-0.56051 0.45124,-1.01174 1.01174,-1.01174 z m -29.92164,0 h 23.97652 c 0.5605,0 1.01174,0.45123 1.01174,1.01174 v 23.97652 c 0,0.5605 -0.45124,1.01174 -1.01174,1.01174 h -23.97652 c -0.5605,0 -1.01174,-0.45124 -1.01174,-1.01174 v -23.97652 c 0,-0.56051 0.45124,-1.01174 1.01174,-1.01174 z m -29.921639,0 h 23.976519 c 0.5605,0 1.01174,0.45123 1.01174,1.01174 v 23.97652 c 0,0.5605 -0.45124,1.01174 -1.01174,1.01174 h -23.976519 c -0.560504,0 -1.011739,-0.45124 -1.011739,-1.01174 v -23.97652 c 0,-0.56051 0.451235,-1.01174 1.011739,-1.01174 z m 89.764919,-29.85225 h 23.97652 c 0.5605,0 1.01174,0.45123 1.01174,1.01174 v 23.97652 c 0,0.5605 -0.45124,1.01174 -1.01174,1.01174 h -23.97652 c -0.5605,0 -1.01174,-0.45124 -1.01174,-1.01174 v -23.97652 c 0,-0.56051 0.45124,-1.01174 1.01174,-1.01174 z m -29.92164,0 h 23.97652 c 0.56051,0 1.01174,0.45123 1.01174,1.01174 v 23.97652 c 0,0.5605 -0.45123,1.01174 -1.01174,1.01174 h -23.97652 c -0.5605,0 -1.01174,-0.45124 -1.01174,-1.01174 v -23.97652 c 0,-0.56051 0.45124,-1.01174 1.01174,-1.01174 z m -29.92164,0 h 23.97652 c 0.5605,0 1.01174,0.45123 1.01174,1.01174 v 23.97652 c 0,0.5605 -0.45124,1.01174 -1.01174,1.01174 h -23.97652 c -0.5605,0 -1.01174,-0.45124 -1.01174,-1.01174 v -23.97652 c 0,-0.56051 0.45124,-1.01174 1.01174,-1.01174 z m -29.921639,0 h 23.976519 c 0.5605,0 1.01174,0.45123 1.01174,1.01174 v 23.97652 c 0,0.5605 -0.45124,1.01174 -1.01174,1.01174 h -23.976519 c -0.560504,0 -1.011739,-0.45124 -1.011739,-1.01174 v -23.97652 c 0,-0.56051 0.451235,-1.01174 1.011739,-1.01174 z m 89.395519,-30.47576 h 23.97652 c 0.5605,0 1.01174,0.45124 1.01174,1.01174 v 23.97652 c 0,0.56051 -0.45124,1.01174 -1.01174,1.01174 h -23.97652 c -0.5605,0 -1.01174,-0.45123 -1.01174,-1.01174 v -23.97652 c 0,-0.5605 0.45124,-1.01174 1.01174,-1.01174 z m -29.92164,0 h 23.97652 c 0.56051,0 1.01174,0.45124 1.01174,1.01174 v 23.97652 c 0,0.56051 -0.45123,1.01174 -1.01174,1.01174 h -23.97652 c -0.5605,0 -1.01174,-0.45123 -1.01174,-1.01174 v -23.97652 c 0,-0.5605 0.45124,-1.01174 1.01174,-1.01174 z m -29.92164,0 h 23.97652 c 0.5605,0 1.01174,0.45124 1.01174,1.01174 v 23.97652 c 0,0.56051 -0.45124,1.01174 -1.01174,1.01174 h -23.97652 c -0.5605,0 -1.01174,-0.45123 -1.01174,-1.01174 v -23.97652 c 0,-0.5605 0.45124,-1.01174 1.01174,-1.01174 z m -29.921639,0 h 23.976519 c 0.5605,0 1.01174,0.45124 1.01174,1.01174 v 23.97652 c 0,0.56051 -0.45124,1.01174 -1.01174,1.01174 h -23.976519 c -0.560504,0 -1.01174,-0.45123 -1.01174,-1.01174 v -23.97652 c 0,-0.5605 0.451236,-1.01174 1.01174,-1.01174 z m 89.764919,-29.55224 h 23.97652 c 0.5605,0 1.01174,0.45123 1.01174,1.01174 v 23.97652 c 0,0.5605 -0.45124,1.01174 -1.01174,1.01174 h -23.97652 c -0.5605,0 -1.01174,-0.45124 -1.01174,-1.01174 v -23.97652 c 0,-0.56051 0.45124,-1.01174 1.01174,-1.01174 z m -29.92164,0 h 23.97652 c 0.56051,0 1.01174,0.45123 1.01174,1.01174 v 23.97652 c 0,0.5605 -0.45123,1.01174 -1.01174,1.01174 h -23.97652 c -0.5605,0 -1.01174,-0.45124 -1.01174,-1.01174 v -23.97652 c 0,-0.56051 0.45124,-1.01174 1.01174,-1.01174 z m -29.92164,0 h 23.97652 c 0.5605,0 1.01174,0.45123 1.01174,1.01174 v 23.97652 c 0,0.5605 -0.45124,1.01174 -1.01174,1.01174 h -23.97652 c -0.5605,0 -1.01174,-0.45124 -1.01174,-1.01174 v -23.97652 c 0,-0.56051 0.45124,-1.01174 1.01174,-1.01174 z m -29.921639,0.1847 h 23.976519 c 0.5605,0 1.01174,0.45124 1.01174,1.01174 v 23.97652 c 0,0.56051 -0.45124,1.01174 -1.01174,1.01174 h -23.976519 c -0.560504,0 -1.01174,-0.45123 -1.01174,-1.01174 v -23.97652 c 0,-0.5605 0.451236,-1.01174 1.01174,-1.01174 z m 175.049159,-21.72641 a 9.6646719,9.6646719 0 0 1 -9.64652,9.66466 9.6646719,9.6646719 0 0 1 -9.68276,-9.62834 9.6646719,9.6646719 0 0 1 9.61014,-9.70083 9.6646719,9.6646719 0 0 1 9.71886,9.59189 m 2.8e-4,-30.52742 a 9.6646719,9.6646719 0 0 1 -9.646,9.66465 9.6646719,9.6646719 0 0 1 -9.68328,-9.6273 9.6646719,9.6646719 0 0 1 9.60858,-9.701858 9.6646719,9.6646719 0 0 1 9.72041,9.589808 m 2.9e-4,-30.92536 a 9.6646719,9.6646719 0 0 1 -9.64652,9.664655 9.6646719,9.6646719 0 0 1 -9.68276,-9.628343 9.6646719,9.6646719 0 0 1 9.61014,-9.70083 9.6646719,9.6646719 0 0 1 9.71886,9.591895 m 2.8e-4,-30.22743 a 9.6646719,9.6646719 0 0 1 -9.646,9.664654 9.6646719,9.6646719 0 0 1 -9.68328,-9.627304 9.6646719,9.6646719 0 0 1 9.60858,-9.701859 9.6646719,9.6646719 0 0 1 9.72041,9.589811 m 28.01278,29.41294 h 13.47458 c 0.25581,0 0.46176,0.205943 0.46176,0.461756 v 6.437887 c 0,0.255812 -0.20595,0.461756 -0.46176,0.461756 h -13.47458 c -0.25582,0 -0.46176,-0.205944 -0.46176,-0.461756 v -6.437887 c 0,-0.255813 0.20594,-0.461756 0.46176,-0.461756 z m -9.01252,119.174481 a 17.1,17.1 0 0 1 -17.09577,17.1 17.1,17.1 0 0 1 -17.10422,-17.09156 17.1,17.1 0 0 1 17.08733,-17.10844 17.1,17.1 0 0 1 17.11266,17.0831 m -215.165817,-149.721905 h 152.899717 v 94.000005 h -152.899717 z" /></g></g></svg>
